<svg width="816" height="248" viewBox="0 0 816 248" fill="none" xmlns="http://www.w3.org/2000/svg">
<path d="M2.4 107V1.16H36.96V107H2.4ZM100.421 107C87.5813 107 78.2813 104.18 72.5213 98.54C66.7613 92.9 63.8813 83.78 63.8813 71.18V38.24C63.8813 25.28 67.0613 15.86 73.4213 9.97999C79.7813 3.97999 88.7813 0.979992 100.421 0.979992H160.541C168.821 0.979992 175.121 1.45999 179.441 2.41999C183.881 3.26 186.101 4.16 186.101 5.11999L180.521 27.62C177.521 27.26 171.641 26.9 162.881 26.54C154.241 26.06 143.321 25.82 130.121 25.82H113.381C107.741 25.82 103.901 26.9 101.861 29.06C99.9413 31.1 98.9813 34.28 98.9813 38.6V69.38C98.9813 73.46 99.8213 76.64 101.501 78.92C103.301 81.08 107.261 82.16 113.381 82.16H127.961C133.481 82.16 138.461 82.16 142.901 82.16C147.341 82.04 151.241 81.92 154.601 81.8V68.12L147.401 68.3L123.821 70.1V45.26H188.981V99.44L190.781 103.22C190.781 104.18 188.261 105.08 183.221 105.92C178.181 106.64 169.661 107 157.661 107H100.421ZM250.714 107C237.994 107 228.694 104.18 222.814 98.54C217.054 92.78 214.174 83.66 214.174 71.18V36.8C214.174 24.56 217.054 15.56 222.814 9.8C228.574 4.04 237.874 1.16 250.714 1.16H303.274C315.874 1.16 325.054 4.04 330.814 9.8C336.694 15.56 339.634 24.56 339.634 36.8V71.18C339.634 83.66 336.694 92.78 330.814 98.54C324.934 104.18 315.754 107 303.274 107H250.714ZM263.134 82.52H291.034C300.394 82.52 305.074 78.26 305.074 69.74V38.24C305.074 29.84 300.394 25.64 291.034 25.64H263.134C258.334 25.64 254.734 26.6 252.334 28.52C249.934 30.44 248.734 33.68 248.734 38.24V69.74C248.734 74.18 249.934 77.42 252.334 79.46C254.734 81.5 258.334 82.52 263.134 82.52ZM483.439 108.8C478.639 108.8 473.299 108.08 467.419 106.64C461.539 105.08 455.719 101.36 449.959 95.48L442.399 87.92C438.799 84.32 435.319 81.38 431.959 79.1C428.719 76.82 424.999 75.14 420.799 74.06C416.599 72.86 411.319 72.26 404.959 72.26H403.519V107H368.419V15.56L366.619 0.979992H449.959C457.639 0.979992 463.819 1.93999 468.499 3.86C473.299 5.66 476.959 8.12 479.479 11.24C482.119 14.24 483.919 17.66 484.879 21.5C485.839 25.34 486.319 29.24 486.319 33.2V36.62C486.319 43.82 484.459 50.3 480.739 56.06C477.139 61.7 471.379 65.72 463.459 68.12C466.459 69.92 469.279 71.78 471.919 73.7C474.679 75.5 477.799 77.42 481.279 79.46C485.239 81.74 488.899 83.42 492.259 84.5C495.739 85.46 498.619 86.06 500.899 86.3C503.179 86.54 504.499 86.66 504.859 86.66L499.459 107C498.019 107.36 495.799 107.72 492.799 108.08C489.919 108.56 486.799 108.8 483.439 108.8ZM424.399 48.32C427.399 48.32 430.279 48.26 433.039 48.14C435.919 48.02 438.499 47.84 440.779 47.6C444.859 47.12 447.619 45.86 449.059 43.82C450.619 41.66 451.399 39.08 451.399 36.08V34.1C451.399 31.46 450.619 29.42 449.059 27.98C447.619 26.54 444.919 25.82 440.959 25.82H403.519V47.6C406.519 47.72 409.819 47.9 413.419 48.14C417.019 48.26 420.679 48.32 424.399 48.32ZM37.14 246C24.3 246 15 243.18 9.24 237.54C3.48 231.9 0.6 222.78 0.6 210.18V177.24C0.6 164.28 3.78 154.86 10.14 148.98C16.5 142.98 25.5 139.98 37.14 139.98H97.26C105.54 139.98 111.84 140.46 116.16 141.42C120.6 142.26 122.82 143.16 122.82 144.12L117.24 166.62C114.24 166.26 108.36 165.9 99.6 165.54C90.96 165.06 80.04 164.82 66.84 164.82H50.1C44.46 164.82 40.62 165.9 38.58 168.06C36.66 170.1 35.7 173.28 35.7 177.6V208.38C35.7 212.46 36.54 215.64 38.22 217.92C40.02 220.08 43.98 221.16 50.1 221.16H64.68C70.2 221.16 75.18 221.16 79.62 221.16C84.06 221.04 87.96 220.92 91.32 220.8V207.12L84.12 207.3L60.54 209.1V184.26H125.7V238.44L127.5 242.22C127.5 243.18 124.98 244.08 119.94 244.92C114.9 245.64 106.38 246 94.38 246H37.14ZM187.433 246C174.713 246 165.413 243.18 159.533 237.54C153.773 231.78 150.893 222.66 150.893 210.18V175.8C150.893 163.56 153.773 154.56 159.533 148.8C165.293 143.04 174.593 140.16 187.433 140.16H239.993C252.593 140.16 261.773 143.04 267.533 148.8C273.413 154.56 276.353 163.56 276.353 175.8V210.18C276.353 222.66 273.413 231.78 267.533 237.54C261.653 243.18 252.473 246 239.993 246H187.433ZM199.853 221.52H227.753C237.113 221.52 241.793 217.26 241.793 208.74V177.24C241.793 168.84 237.113 164.64 227.753 164.64H199.853C195.053 164.64 191.453 165.6 189.053 167.52C186.653 169.44 185.453 172.68 185.453 177.24V208.74C185.453 213.18 186.653 216.42 189.053 218.46C191.453 220.5 195.053 221.52 199.853 221.52ZM420.158 247.8C415.358 247.8 410.018 247.08 404.138 245.64C398.258 244.08 392.438 240.36 386.678 234.48L379.118 226.92C375.518 223.32 372.038 220.38 368.678 218.1C365.438 215.82 361.718 214.14 357.518 213.06C353.318 211.86 348.038 211.26 341.678 211.26H340.238V246H305.138V154.56L303.338 139.98H386.678C394.358 139.98 400.538 140.94 405.218 142.86C410.018 144.66 413.678 147.12 416.198 150.24C418.838 153.24 420.638 156.66 421.598 160.5C422.558 164.34 423.038 168.24 423.038 172.2V175.62C423.038 182.82 421.178 189.3 417.458 195.06C413.858 200.7 408.098 204.72 400.178 207.12C403.178 208.92 405.998 210.78 408.638 212.7C411.398 214.5 414.518 216.42 417.998 218.46C421.958 220.74 425.618 222.42 428.978 223.5C432.458 224.46 435.338 225.06 437.618 225.3C439.898 225.54 441.218 225.66 441.578 225.66L436.178 246C434.738 246.36 432.518 246.72 429.518 247.08C426.638 247.56 423.518 247.8 420.158 247.8ZM361.118 187.32C364.118 187.32 366.998 187.26 369.758 187.14C372.638 187.02 375.218 186.84 377.498 186.6C381.578 186.12 384.338 184.86 385.778 182.82C387.338 180.66 388.117 178.08 388.117 175.08V173.1C388.117 170.46 387.338 168.42 385.778 166.98C384.338 165.54 381.638 164.82 377.678 164.82H340.238V186.6C343.238 186.72 346.538 186.9 350.138 187.14C353.738 187.26 357.398 187.32 361.118 187.32ZM459.649 246V154.56L457.849 140.16H490.969L541.729 191.64L548.749 199.56H550.729V140.16H585.289V246H555.229L503.029 193.98L496.009 185.52H494.209V246H459.649ZM614.119 246V140.16H648.679V246H614.119ZM793.86 247.8C787.98 247.8 782.28 246.6 776.76 244.2C771.24 241.8 766.38 238.56 762.18 234.48C760.02 232.32 757.86 230.16 755.7 228C753.54 225.84 751.38 223.68 749.22 221.52C744.66 216.96 739.8 213.36 734.64 210.72C729.6 207.96 723.24 206.58 715.56 206.58H713.76V246H679.2V154.56L677.4 140.16H713.76V181.74H719.16C721.2 181.74 722.76 181.5 723.84 181.02C725.04 180.42 726.3 179.4 727.62 177.96C730.5 174.84 733.68 171.06 737.16 166.62C740.76 162.06 744.24 157.44 747.6 152.76C751.08 147.96 754.02 143.76 756.42 140.16H800.52L793.14 150.96C790.14 154.2 786.78 157.74 783.06 161.58C779.46 165.42 775.86 169.2 772.26 172.92C768.66 176.52 765.36 179.82 762.36 182.82C759.36 185.82 756.96 188.16 755.16 189.84C758.88 191.4 762.12 193.2 764.88 195.24C767.64 197.16 770.64 199.38 773.88 201.9C776.88 204.18 779.46 206.28 781.62 208.2C783.9 210.12 786.6 212.28 789.72 214.68C796.2 219.72 801.78 222.9 806.46 224.22C811.26 225.42 814.32 226.02 815.64 226.02L808.44 246C807.24 246.36 805.32 246.72 802.68 247.08C800.16 247.56 797.22 247.8 793.86 247.8Z" fill="url(#paint0_linear_77_4)"/>
<defs>
<linearGradient id="paint0_linear_77_4" x1="-12" y1="123.5" x2="818" y2="123.5" gradientUnits="userSpaceOnUse">
<stop stop-color="#FF962D"/>
<stop offset="1" stop-color="#FFC16A"/>
</linearGradient>
</defs>
</svg>
