<svg width="18" height="20" viewBox="0 0 18 20" fill="none" xmlns="http://www.w3.org/2000/svg">
<g clip-path="url(#clip0_2_291)">
<path d="M17.5 11.5625C17.5 14.1523 15.4023 16.25 12.8125 16.25H12.5C11.8086 16.25 11.25 15.6914 11.25 15C11.25 14.3086 11.8086 13.75 12.5 13.75H12.8125C14.0195 13.75 15 12.7695 15 11.5625V11.25H12.5C11.1211 11.25 10 10.1289 10 8.75V6.25C10 4.87109 11.1211 3.75 12.5 3.75H15C16.3789 3.75 17.5 4.87109 17.5 6.25V7.5V8.75V11.5625ZM7.5 11.5625C7.5 14.1523 5.40234 16.25 2.8125 16.25H2.5C1.80859 16.25 1.25 15.6914 1.25 15C1.25 14.3086 1.80859 13.75 2.5 13.75H2.8125C4.01953 13.75 5 12.7695 5 11.5625V11.25H2.5C1.12109 11.25 0 10.1289 0 8.75V6.25C0 4.87109 1.12109 3.75 2.5 3.75H5C6.37891 3.75 7.5 4.87109 7.5 6.25V7.5V8.75V11.5625Z" fill="url(#paint0_linear_2_291)"/>
</g>
<defs>
<linearGradient id="paint0_linear_2_291" x1="0" y1="10" x2="17.5" y2="10" gradientUnits="userSpaceOnUse">
<stop stop-color="#FF962D"/>
<stop offset="1" stop-color="#FFC16A"/>
</linearGradient>
<clipPath id="clip0_2_291">
<rect width="17.5" height="20" fill="white"/>
</clipPath>
</defs>
</svg>
