<svg width="18" height="20" viewBox="0 0 18 20" fill="none" xmlns="http://www.w3.org/2000/svg">
<g clip-path="url(#clip0_2_289)">
<path d="M0 8.4375C0 5.84766 2.07041 3.75 4.62662 3.75H4.93507C5.61749 3.75 6.16883 4.30859 6.16883 5C6.16883 5.69141 5.61749 6.25 4.93507 6.25H4.62662C3.43527 6.25 2.46753 7.23047 2.46753 8.4375V8.75H4.93507C6.29606 8.75 7.4026 9.87109 7.4026 11.25V13.75C7.4026 15.1289 6.29606 16.25 4.93507 16.25H2.46753C1.10653 16.25 0 15.1289 0 13.75V12.5V11.25V8.4375ZM9.87013 8.4375C9.87013 5.84766 11.9405 3.75 14.4968 3.75H14.8052C15.4876 3.75 16.039 4.30859 16.039 5C16.039 5.69141 15.4876 6.25 14.8052 6.25H14.4968C13.3054 6.25 12.3377 7.23047 12.3377 8.4375V8.75H14.8052C16.1662 8.75 17.2727 9.87109 17.2727 11.25V13.75C17.2727 15.1289 16.1662 16.25 14.8052 16.25H12.3377C10.9767 16.25 9.87013 15.1289 9.87013 13.75V12.5V11.25V8.4375Z" fill="url(#paint0_linear_2_289)"/>
</g>
<defs>
<linearGradient id="paint0_linear_2_289" x1="0" y1="10" x2="17.2727" y2="10" gradientUnits="userSpaceOnUse">
<stop stop-color="#FF962D"/>
<stop offset="1" stop-color="#FFC16A"/>
</linearGradient>
<clipPath id="clip0_2_289">
<rect width="17.2727" height="20" fill="white"/>
</clipPath>
</defs>
</svg>
